<svg width="30" height="30" viewBox="0 0 30 30" fill="none" xmlns="http://www.w3.org/2000/svg">
<path d="M8.99752 24C7.34798 24 6.01334 25.35 6.01334 27C6.01334 28.65 7.34798 30 8.99752 30C10.6471 30 11.9967 28.65 11.9967 27C11.9967 25.35 10.6471 24 8.99752 24ZM0 1.5C0 2.325 0.674814 3 1.49959 3H2.99917L8.39769 14.385L6.37325 18.045C5.27855 20.055 6.71815 22.5 8.99752 22.5H25.493C26.3178 22.5 26.9926 21.825 26.9926 21C26.9926 20.175 26.3178 19.5 25.493 19.5H8.99752L10.6471 16.5H21.819C22.9437 16.5 23.9334 15.885 24.4433 14.955L29.8118 5.22C29.9382 4.99264 30.003 4.73621 29.9999 4.47608C29.9968 4.21596 29.9258 3.96116 29.794 3.73689C29.6622 3.51263 29.4742 3.32667 29.2485 3.19743C29.0228 3.06818 28.7672 3.00013 28.5072 3H6.31326L5.30854 0.855002C5.18802 0.598961 4.99707 0.382562 4.75805 0.231142C4.51903 0.0797212 4.24183 -0.000454291 3.95891 1.93627e-06H1.49959C0.674814 1.93627e-06 0 0.675002 0 1.5ZM23.9934 24C22.3438 24 21.0092 25.35 21.0092 27C21.0092 28.65 22.3438 30 23.9934 30C25.6429 30 26.9926 28.65 26.9926 27C26.9926 25.35 25.6429 24 23.9934 24Z" fill="black"/>
</svg>
