<svg width="20" height="20" viewBox="0 0 20 20" fill="none" xmlns="http://www.w3.org/2000/svg">
<path fill-rule="evenodd" clip-rule="evenodd" d="M2.86059 8.57896C2.86059 7.0621 3.46313 5.60738 4.53565 4.5348C5.60817 3.46222 7.06281 2.85965 8.57958 2.85965C10.0964 2.85965 11.551 3.46222 12.6235 4.5348C13.696 5.60738 14.2986 7.0621 14.2986 8.57896C14.2986 10.0958 13.696 11.5505 12.6235 12.6231C11.551 13.6957 10.0964 14.2983 8.57958 14.2983C7.06281 14.2983 5.60817 13.6957 4.53565 12.6231C3.46313 11.5505 2.86059 10.0958 2.86059 8.57896ZM8.57958 1.6223e-07C7.22948 -0.000172136 5.89839 0.31834 4.69459 0.929632C3.49078 1.54092 2.44825 2.42773 1.65178 3.51794C0.855303 4.60814 0.327382 5.87096 0.110948 7.20367C-0.105487 8.53639 -0.0043214 9.90138 0.406215 11.1876C0.816752 12.4739 1.52507 13.6451 2.47355 14.6059C3.42204 15.5668 4.58391 16.2902 5.86468 16.7173C7.14545 17.1445 8.50894 17.2632 9.84427 17.064C11.1796 16.8648 12.4491 16.3532 13.5494 15.5708L17.577 19.5986C17.8466 19.8591 18.2078 20.0032 18.5827 19.9999C18.9576 19.9967 19.3162 19.8463 19.5812 19.5812C19.8463 19.3161 19.9967 18.9575 19.9999 18.5826C20.0032 18.2077 19.8591 17.8465 19.5987 17.5769L15.5725 13.5505C16.4851 12.267 17.0268 10.7571 17.1382 9.18617C17.2497 7.61526 16.9266 6.04398 16.2044 4.64451C15.4822 3.24503 14.3887 2.07137 13.0438 1.25213C11.6988 0.432895 10.1544 -0.000306056 8.57958 1.6223e-07Z" fill="white"/>
</svg>
